<svg width="300" height="300" xmlns="http://www.w3.org/2000/svg" version="1.1">

 <g>
  <title>Layer 1</title>
  <g id="svg_21">
   <path id="svg_2" fill=" #050505" d="m87.67845,30.17442c1.49219,1.14994 2.97321,2.31474 4.4375,3.50001c1.05188,0.76312 2.10376,1.52624 3.1875,2.3125c9.13843,8.7323 16.53094,21.91091 16.867,34.77462c0.01306,2.40751 0.00543,4.81396 -0.01154,7.22145c-0.00311,0.83624 -0.00623,1.67249 -0.0094,2.53407c-0.00806,2.05246 -0.02039,4.10491 -0.03357,6.15735c12.14819,3.55247 24.30017,7.09134 36.4574,10.6129c5.6449,1.63562 11.28833,3.27591 16.92883,4.9269c5.44336,1.59309 10.89001,3.17387 16.33936,4.74617c2.07849,0.60205 4.15576,1.20851 6.23157,1.81947c2.90771,0.85495 5.81946,1.69405 8.73279,2.52957c1.28613,0.38408 1.28613,0.38408 2.59814,0.77596c7.78894,2.20078 12.37866,1.00914 19.52441,-2.84846c12.61865,-6.51405 25.76819,-7.67085 39.43752,-3.5c6.92468,2.27095 12.90527,5.56131 18.75,9.9375c0.8302,0.61359 1.66028,1.22719 2.51563,1.85939c7.02014,6.04877 12.4906,14.38612 15.48438,23.14064c0.29651,0.83919 0.59302,1.67836 0.89844,2.54297c4.32507,13.74911 2.47192,27.79524 -3.64844,40.70703c-7.97803,14.80795 -19.14807,23.70677 -35.25,28.75c-1.13441,0.36609 -2.26881,0.73219 -3.43752,1.10938c-14.18213,3.54553 -28.01758,-0.0528 -40.42969,-7.06641c-5.07129,-3.30713 -11.35889,-7.49521 -14.13281,-13.04297c-4.00195,0.56982 -7.5271,1.43228 -11.28345,2.91772c-1.50671,0.59082 -1.50671,0.59082 -3.04382,1.19359c-1.06897,0.42604 -2.13782,0.85208 -3.23914,1.29103c-1.11169,0.43776 -2.22327,0.87552 -3.36865,1.32655c-3.54468,1.39737 -7.08606,2.80287 -10.62744,4.2086c-2.38721,0.9426 -4.77454,1.88466 -7.16211,2.82617c-7.7644,3.06396 -15.52649,6.13353 -23.27539,9.23633c0.23975,1.22977 0.23975,1.22977 0.48438,2.48438c1.48804,10.14574 1.61157,20.99474 -2.48438,30.51561c-0.37897,0.93976 -0.758,1.87946 -1.14844,2.84769c-6.31024,14.13414 -16.75311,23.3318 -30.85156,29.40227c-15.27411,5.69223 -30.07794,5.1015 -44.94141,-1.57028c-15.04759,-7.65985 -24.34349,-20.05011 -29.80858,-35.84761c-3.87201,-14.33176 -1.07104,-29.2245 5.875,-42.08205c7.6189,-12.174 19.31469,-21.93132 33.18748,-26.08594c16.19196,-2.91592 32.41656,-1.5298 46.25,7.83594c1.49219,1.14993 2.97321,2.31474 4.4375,3.5c1.05188,0.76312 2.10376,1.52625 3.1875,2.3125c5.65686,5.40544 9.44171,11.25607 11.8125,18.6875c8.65198,-3.21558 17.28162,-6.48289 25.88281,-9.83203c1.69788,-0.65956 3.39587,-1.31906 5.09375,-1.97852c2.5968,-1.0088 5.19287,-2.01936 7.78711,-3.03491c2.55847,-1.00082 5.11975,-1.99432 7.68164,-2.98657c1.15784,-0.45619 1.15784,-0.45619 2.33911,-0.92159c4.06836,-1.56807 7.85571,-2.71231 12.21558,-3.24638c-0.42151,-0.91782 -0.84302,-1.83563 -1.27734,-2.78125c-5.64075,-12.51666 -5.64075,-12.51666 -5.72266,-19.21875c-0.06055,-1.12019 -0.12122,-2.24039 -0.18359,-3.39453c-0.49194,-14.7135 4.23535,-28.50931 14.18359,-39.6055c-2.86914,-1.91272 -4.60962,-2.55736 -7.88672,-3.38281c-1.05725,-0.27263 -2.1145,-0.54527 -3.20386,-0.82616c-1.18701,-0.30231 -2.37402,-0.60458 -3.59692,-0.91603c-17.37622,-4.51244 -34.6167,-9.49876 -51.85974,-14.49225c-3.65393,-1.05772 -7.30914,-2.11104 -10.96448,-3.164c-1.11438,-0.32463 -2.22876,-0.64926 -3.37695,-0.98372c-1.02502,-0.29478 -2.05011,-0.58954 -3.1062,-0.89323c-0.89771,-0.2601 -1.79535,-0.52022 -2.72028,-0.78821c-2.37897,-0.67133 -2.37897,-0.67133 -5.28485,-0.55359c-0.45825,1.09055 -0.45825,1.09055 -0.92578,2.20314c-6.58777,14.47458 -16.48486,23.76503 -31.07422,30.04686c-15.27411,5.69223 -30.07792,5.1015 -44.94139,-1.57031c-15.04761,-7.65985 -24.3435,-20.05011 -29.80859,-35.84766c-3.87201,-14.33176 -1.07104,-29.22447 5.875,-42.08202c7.6189,-12.17399 19.3147,-21.93133 33.1875,-26.08595c16.19194,-2.91592 32.41655,-1.5298 46.24998,7.83594z"/>
   <path id="svg_9" fill=" #FDFDFD" d="m106.37376,195.06116c9.44397,6.55333 16.6076,16.14253 18.74219,27.61328c0.98956,12.58818 -1.22021,23.84831 -9,33.99997c-2.4375,2.68747 -2.4375,2.68747 -5,4.99997c-0.86627,0.82501 -1.73248,1.65002 -2.625,2.5c-9.67242,7.93896 -21.30029,9.42084 -33.375,8.5c-10.39349,-2.33484 -20.46526,-8.52673 -26.99998,-16.99997c-6.98419,-11.81197 -9.78254,-22.45958 -6.9375,-35.99997c3.17645,-11.40562 10.41528,-20.56412 20.59373,-26.56641c14.3916,-7.42859 30.86267,-6.48511 44.60156,1.95313z"/>
   <path id="svg_10" fill=" #FDFDFD" d="m266.25269,124.02206c8.87097,6.33646 14.41174,14.29773 17.86328,24.65237c1.23206,14.68376 0.4884,26.33919 -9.14844,37.96484c-4.9729,5.46603 -10.09314,9.07118 -16.85156,12.03516c-1.29932,0.58781 -1.29932,0.58781 -2.62502,1.1875c-10.63879,3.6396 -21.25476,2.28423 -31.375,-2.1875c-3.2373,-1.74706 -6.12231,-3.71236 -9,-6c-0.61487,-0.47824 -1.22974,-0.95648 -1.86328,-1.44922c-7.59619,-6.68663 -12.6571,-17.51353 -13.33984,-27.53125c-0.19836,-13.57422 3.58191,-24.15831 12.82813,-34.26955c15.10547,-14.32271 36.37463,-15.21097 53.51173,-4.40236z"/>
   <path id="svg_11" fill=" #FDFDFD" d="m80.37376,41.06114c9.44397,6.55333 16.6076,16.14254 18.74219,27.61327c0.98956,12.5882 -1.22021,23.84831 -9,34c-2.4375,2.6875 -2.4375,2.6875 -5,5c-0.86627,0.825 -1.73248,1.64999 -2.625,2.5c-9.67242,7.93895 -21.30029,9.42084 -33.37498,8.5c-10.37512,-2.33073 -20.49286,-8.52054 -27,-17c-7.2019,-12.51795 -9.16608,-25.00003 -6.35156,-39.29296c4.44098,-11.93745 14.28748,-20.56083 25.52734,-25.98048c12.70361,-5.05968 27.84843,-2.23936 39.08202,4.66017z"/>
  </g>
 </g>
</svg>